<?xml version="1.0" encoding="iso-8859-1"?>
<!-- Generator: Adobe Illustrator 19.0.0, SVG Export Plug-In . SVG Version: 6.00 Build 0)  -->
<svg xmlns="http://www.w3.org/2000/svg" xmlns:xlink="http://www.w3.org/1999/xlink" version="1.1" id="Capa_1" x="0px" y="0px" viewBox="0 0 512 512" style="enable-background:new 0 0 512 512;" xml:space="preserve" width="512" height="512">
<g>
	<path style="fill:#C3DDFF;" d="M256,80c-2.047,0-4.094-0.781-5.656-2.344l-40-40c-3.125-3.125-3.125-8.188,0-11.313   c3.125-3.125,8.188-3.125,11.313,0L256,60.687l34.344-34.344c3.125-3.125,8.188-3.125,11.313,0s3.125,8.188,0,11.313l-40,40   C260.094,79.219,258.047,80,256,80z"/>
	<path style="fill:#C3DDFF;" d="M296,488c-2.047,0-4.094-0.781-5.656-2.344L256,451.312l-34.344,34.344   c-3.125,3.125-8.188,3.125-11.313,0c-3.125-3.125-3.125-8.188,0-11.313l40-40c3.125-3.125,8.188-3.125,11.313,0l40,40   c3.125,3.125,3.125,8.188,0,11.313C300.094,487.219,298.047,488,296,488z"/>
	<path style="fill:#C3DDFF;" d="M42,186.645c-3.531,0-6.766-2.359-7.719-5.934c-1.141-4.266,1.391-8.652,5.656-9.797l46.914-12.57   l-12.57-46.914c-1.141-4.266,1.391-8.652,5.656-9.797c4.273-1.145,8.664,1.387,9.797,5.656l14.641,54.641   c1.141,4.266-1.391,8.652-5.656,9.797l-54.641,14.641C43.383,186.555,42.688,186.645,42,186.645z"/>
	<path style="fill:#C3DDFF;" d="M429.984,410.645c-3.531,0-6.766-2.359-7.719-5.934l-14.641-54.641   c-1.141-4.266,1.391-8.652,5.656-9.797l54.641-14.641c4.273-1.145,8.664,1.387,9.797,5.656c1.141,4.266-1.391,8.652-5.656,9.797   l-46.914,12.57l12.57,46.914c1.141,4.266-1.391,8.652-5.656,9.797C431.367,410.555,430.672,410.645,429.984,410.645z"/>
	<path style="fill:#C3DDFF;" d="M470,186.645c-0.688,0-1.383-0.09-2.078-0.277l-54.641-14.641c-4.266-1.145-6.797-5.531-5.656-9.797   l14.641-54.641c1.141-4.27,5.539-6.793,9.797-5.656c4.266,1.145,6.797,5.531,5.656,9.797l-12.57,46.914l46.914,12.57   c4.266,1.145,6.797,5.531,5.656,9.797C476.766,184.285,473.531,186.645,470,186.645z"/>
	<path style="fill:#C3DDFF;" d="M82.016,410.645c-0.688,0-1.383-0.09-2.078-0.277c-4.266-1.145-6.797-5.531-5.656-9.797   l12.57-46.914l-46.914-12.57c-4.266-1.145-6.797-5.531-5.656-9.797s5.547-6.793,9.797-5.656l54.641,14.641   c4.266,1.145,6.797,5.531,5.656,9.797l-14.641,54.641C88.781,408.285,85.547,410.641,82.016,410.645z"/>
	<polygon style="fill:#DBEAFF;" points="387.636,332 387.636,180 256,104 124.364,180 124.364,332 256,408  "/>
	<path style="fill:#C3DDFF;" d="M256,184c-2.047,0-4.094-0.781-5.656-2.344l-32-32c-3.125-3.125-3.125-8.188,0-11.313   s8.188-3.125,11.313,0L256,164.688l26.344-26.344c3.125-3.125,8.188-3.125,11.313,0s3.125,8.188,0,11.313l-32,32   C260.094,183.219,258.047,184,256,184z"/>
	<path style="fill:#C3DDFF;" d="M288,376c-2.047,0-4.094-0.781-5.656-2.344L256,347.313l-26.344,26.344   c-3.125,3.125-8.188,3.125-11.313,0s-3.125-8.188,0-11.313l32-32c3.125-3.125,8.188-3.125,11.313,0l32,32   c3.125,3.125,3.125,8.188,0,11.313C292.094,375.219,290.047,376,288,376z"/>
	<path style="fill:#C3DDFF;" d="M256,448c-1.383,0-2.766-0.355-4-1.07l-159.352-92c-2.477-1.43-4-4.07-4-6.93V164   c0-2.859,1.523-5.5,4-6.93L252,65.07c2.469-1.43,5.531-1.43,8,0l159.352,92c2.477,1.43,4,4.07,4,6.93v184c0,2.859-1.523,5.5-4,6.93   L260,446.93C258.766,447.645,257.383,448,256,448z M104.648,343.383L256,430.762l151.352-87.379V168.617L256,81.238   l-151.352,87.379V343.383z M415.352,348h0.078H415.352z"/>
	<path style="fill:#FFFFFF;" d="M256,310.188c-1.383,0-2.766-0.355-4-1.07l-40-23.094c-2.477-1.43-4-4.07-4-6.93v-46.188   c0-2.859,1.523-5.5,4-6.93l40-23.094c2.469-1.43,5.531-1.43,8,0l40,23.094c2.477,1.43,4,4.07,4,6.93v46.188   c0,2.859-1.523,5.5-4,6.93l-40,23.094C258.766,309.832,257.383,310.188,256,310.188z M224,274.477l32,18.473l32-18.473v-36.953   l-32-18.473l-32,18.473V274.477z M296,279.094h0.078H296z"/>
	<path style="fill:#C3DDFF;" d="M143,235.715c-3.531,0-6.766-2.359-7.719-5.934c-1.141-4.27,1.391-8.656,5.656-9.797l35.984-9.641   l-9.641-35.984c-1.141-4.27,1.391-8.656,5.656-9.797c4.281-1.152,8.664,1.387,9.797,5.656l11.711,43.711   c1.141,4.27-1.391,8.656-5.656,9.797l-43.711,11.711C144.383,235.625,143.688,235.715,143,235.715z"/>
	<path style="fill:#C3DDFF;" d="M336.984,347.715c-3.531,0-6.766-2.359-7.719-5.934l-11.711-43.711   c-1.141-4.27,1.391-8.656,5.656-9.797l43.711-11.711c4.281-1.141,8.656,1.387,9.797,5.656s-1.391,8.656-5.656,9.797l-35.984,9.641   l9.641,35.984c1.141,4.27-1.391,8.656-5.656,9.797C338.367,347.625,337.672,347.715,336.984,347.715z"/>
	<path style="fill:#C3DDFF;" d="M369,235.715c-0.688,0-1.383-0.09-2.078-0.277l-43.711-11.711c-4.266-1.141-6.797-5.527-5.656-9.797   l11.711-43.711c1.141-4.27,5.539-6.801,9.797-5.656c4.266,1.141,6.797,5.527,5.656,9.797l-9.641,35.984l35.984,9.641   c4.266,1.141,6.797,5.527,5.656,9.797C375.766,233.355,372.531,235.715,369,235.715z"/>
	<path style="fill:#C3DDFF;" d="M175.016,347.715c-0.688,0-1.383-0.09-2.078-0.277c-4.266-1.141-6.797-5.527-5.656-9.797   l9.641-35.984l-35.984-9.641c-4.266-1.141-6.797-5.527-5.656-9.797c1.141-4.266,5.555-6.789,9.797-5.656l43.711,11.711   c4.266,1.141,6.797,5.527,5.656,9.797l-11.711,43.711C181.781,345.355,178.547,347.711,175.016,347.715z"/>
	<path style="fill:#A4CCFF;" d="M256,512c-4.422,0-8-3.582-8-8V8c0-4.418,3.578-8,8-8c4.422,0,8,3.582,8,8v496   C264,508.418,260.422,512,256,512z"/>
	<path style="fill:#A4CCFF;" d="M470.766,388c-1.359,0-2.734-0.344-3.992-1.07l-429.547-248c-3.828-2.211-5.141-7.102-2.93-10.93   c2.203-3.832,7.109-5.145,10.93-2.93l429.547,248c3.828,2.211,5.141,7.102,2.93,10.93C476.219,386.566,473.531,388,470.766,388z"/>
	<path style="fill:#A4CCFF;" d="M41.234,388c-2.766,0-5.453-1.434-6.938-4c-2.211-3.828-0.898-8.719,2.93-10.93l429.547-248   c3.813-2.215,8.719-0.902,10.93,2.93c2.211,3.828,0.898,8.719-2.93,10.93l-429.547,248C43.969,387.656,42.594,388,41.234,388z"/>
</g>















</svg>
